<svg id="visual" viewBox="0 0 540 960" width="540" height="960" xmlns="http://www.w3.org/2000/svg" xmlns:xlink="http://www.w3.org/1999/xlink" version="1.1"><path d="M0 97L108 279L216 318L324 97L432 174L540 164L540 0L432 0L324 0L216 0L108 0L0 0Z" fill="#f06e28"></path><path d="M0 433L108 529L216 452L324 702L432 702L540 452L540 162L432 172L324 95L216 316L108 277L0 95Z" fill="#fc9f6f"></path><path d="M0 615L108 587L216 577L324 759L432 779L540 692L540 450L432 700L324 700L216 450L108 527L0 431Z" fill="#ffcfb6"></path><path d="M0 961L108 961L216 961L324 961L432 961L540 961L540 690L432 777L324 757L216 575L108 585L0 613Z" fill="#ffffff"></path></svg>